inDegrees=yes
name=ik_lifting_orientations
DataType=double
version=3
OpenSimVersion=4.5-2024-01-10-34fd6af
endheader
time	pelvis_tilt	pelvis_list	pelvis_rotation	pelvis_tx	pelvis_ty	pelvis_tz	hip_flexion_r	hip_adduction_r	hip_rotation_r	knee_angle_r	knee_angle_r_beta	ankle_angle_r	subtalar_angle_r	mtp_angle_r	hip_flexion_l	hip_adduction_l	hip_rotation_l	knee_angle_l	knee_angle_l_beta	ankle_angle_l	subtalar_angle_l	mtp_angle_l	lumbar_extension	lumbar_bending	lumbar_rotation	arm_flex_r	arm_add_r	arm_rot_r	elbow_flex_r	pro_sup_r	wrist_flex_r	wrist_dev_r	arm_flex_l	arm_add_l	arm_rot_l	elbow_flex_l	pro_sup_l	wrist_flex_l	wrist_dev_l
1.14	0.6275986293134334	-13.04717223007334	-91.71647387533916	0	0.9399999998679526	0	44.25280489802709	-13.66304313731848	0	59.60450338206262	1.040294833033088	-6.924120212267312	0	0	44.25280489802709	-13.66304313731848	0	59.60450338206262	1.040294833033088	-6.924120212267312	0	0	-22.9956517815751	-1.987001149456437	-3.687873495343512	20.22743559889638	-21.61941373555168	2.345857864164137	115.7319704804564	4.064699938662311	0	0	0	-8.357725266865652	0	86.00713931890603	4.064699938662311	0	0
1.15	0.5930405661396181	-12.05548790087063	-91.80344537886747	0	0.9399999998679526	0	44.25615713676317	-13.62193065597689	0	59.60624888395412	1.040325297788195	-6.898002753891648	0	0	44.25615713676317	-13.62193065597689	0	59.60624888395412	1.040325297788195	-6.898002753891648	0	0	-20.92489570623039	-1.935422417182343	-3.842519354751067	21.67924898605526	-22.0366726283565	3.248646242550877	119.029914174504	4.050804185125149	0	0	0	-8.375698398435276	0	86.02078841185106	4.050804185125149	0	0
1.16	0.5550696783538426	-10.98547575616018	-91.82960930454601	0	0.9399999998679526	0	44.25893933644078	-13.5877859539459	0	59.60768669001581	1.040350392237976	-6.876341712876638	0	0	44.25893933644078	-13.5877859539459	0	59.60768669001581	1.040350392237976	-6.876341712876638	0	0	-19.28965189223837	-1.8535603826213	-3.968406175101141	21.58273836310827	-21.5475151729625	3.737204776893443	122.2124182827724	4.039285229175311	0	0	0	-8.390580794065393	0	86.03210289135303	4.039285229175311	0	0
1.17	0.517201788406321	-9.985945747272	-91.97268267176469	0	0.9399999998679526	0	44.25915560502052	-13.58409055457336	0	59.60777641125244	1.040351958168965	-6.873832792683237	0	0	44.25915560502052	-13.58409055457336	0	59.60777641125244	1.040351958168965	-6.873832792683237	0	0	-17.24039990695373	-1.772453701298547	-4.211330584174575	21.54008117222414	-20.98207883036376	4.433324187880594	122.2287793079011	4.038464112259482	0	0	0	-8.391570729015427	0	86.03290940639484	4.038464112259482	0	0
1.18	0.4865628835105004	-8.11570251556201	-93.28704140266669	0	0.9399999998679526	0	44.26570127433212	-13.50890569422431	0	59.61123577051827	1.040412335378163	-6.827067689193758	0	0	44.26570127433212	-13.50890569422431	0	59.61123577051827	1.040412335378163	-6.827067689193758	0	0	-14.32316880050258	-1.892850167669393	-3.15501904161798	21.44043454718906	-20.51913082192877	5.114998663732644	123.210345997353	4.011038247607055	0	0	0	-8.427304233567581	0	86.05984853649834	4.011038247607055	0	0
1.19	0.471576731695287	-7.247514262420157	-94.04550906199756	0	0.9399999998679526	0	44.26810177311857	-13.47986081480339	0	59.61247551947571	1.040433973079368	-6.808726707937685	0	0	44.26810177311857	-13.47986081480339	0	59.61247551947571	1.040433973079368	-6.808726707937685	0	0	-11.56014964550435	-1.772649640547413	-3.341467771666952	21.02634802472194	-20.19847851127309	6.988493490113979	124.4493286022888	4.00107661714375	0	0	0	-8.440194687403411	0	86.06963334308175	4.00107661714375	0	0
1.2	0.4424519445102873	-6.487288815084915	-94.41723418913922	0	0.9399999998679526	0	44.27110508267449	-13.44385744466239	0	59.61402637673151	1.04046104064471	-6.786070266131811	0	0	44.27110508267449	-13.44385744466239	0	59.61402637673151	1.04046104064471	-6.786070266131811	0	0	-9.803886897966267	-1.655903513242657	-3.792860991117675	21.10395250744764	-19.00998236282153	9.186586481726815	131.0167268407432	3.98859825544654	0	0	0	-8.456353960262442	0	86.0818902123525	3.98859825544654	0	0
1.21	0.4245537809008551	-5.819653271178034	-94.30292499449081	0	0.9399999998679526	0	44.27384809833309	-13.41107950182503	0	59.61544079656834	1.040485726927868	-6.765470746896609	0	0	44.27384809833309	-13.41107950182503	0	59.61544079656834	1.040485726927868	-6.765470746896609	0	0	-8.224880126740308	-1.448085700648253	-4.807660459600053	22.87289372221434	-18.2685005721176	11.07538621663888	130.8286074980282	3.977197484159575	0	0	0	-8.471120470649522	0	86.0930886197673	3.977197484159575	0	0
1.22	0.3945941723569441	-5.119758434149838	-94.18337645314965	0	0.9399999998679526	0	44.27654458606359	-13.37902275507449	0	59.61683128465106	1.040509995523122	-6.745360171632103	0	0	44.27654458606359	-13.37902275507449	0	59.61683128465106	1.040509995523122	-6.745360171632103	0	0	-6.708534046725945	-1.246538989605335	-5.77481047756486	23.42782363235847	-16.71440577164457	13.10682984315969	136.6565608682859	3.965981229284485	0	0	0	-8.485655649483888	0	86.10410578894005	3.965981229284485	0	0
1.23	0.3456623345710345	-4.410009308878807	-94.2088687026869	0	0.9399999998679526	0	44.27870638600342	-13.35396199599694	0	59.61795828665186	1.040529665418712	-6.729740772306564	0	0	44.27870638600342	-13.35396199599694	0	59.61795828665186	1.040529665418712	-6.729740772306564	0	0	-5.30640361909662	-1.08490120980964	-6.701980036177234	24.46942721095797	-15.92340290719614	13.9963177520034	136.5138976073226	3.956942109332903	0	0	0	-8.49741428479023	0	86.11298448261127	3.956942109332903	0	0
